<svg id="Capa_1" data-name="Capa 1" xmlns="http://www.w3.org/2000/svg" viewBox="0 0 248.29 248.29"><title>error-01</title><path d="M231.63,61.83a121.48,121.48,0,0,1,16.65,62.31,121.47,121.47,0,0,1-16.65,62.31,123.61,123.61,0,0,1-45.18,45.18,121.49,121.49,0,0,1-62.31,16.65,121.48,121.48,0,0,1-62.31-16.65,123.56,123.56,0,0,1-45.18-45.18A121.43,121.43,0,0,1,0,124.14,121.44,121.44,0,0,1,16.65,61.83,123.58,123.58,0,0,1,61.83,16.65,121.44,121.44,0,0,1,124.14,0a121.46,121.46,0,0,1,62.31,16.65A123.62,123.62,0,0,1,231.63,61.83ZM200.28,168.27a86,86,0,0,0,11.8-44.13A86,86,0,0,0,200.28,80a87.64,87.64,0,0,0-32-32,86,86,0,0,0-44.13-11.8A86,86,0,0,0,80,48,87.61,87.61,0,0,0,48,80a85.93,85.93,0,0,0-11.8,44.13A86,86,0,0,0,48,168.27a87.64,87.64,0,0,0,32,32,86,86,0,0,0,44.13,11.8,86,86,0,0,0,44.13-11.8A87.67,87.67,0,0,0,200.28,168.27Zm-23-14.55-23.6,23.6a5.09,5.09,0,0,1-7.44,0l-22.15-22.15L102,177.32a5.09,5.09,0,0,1-7.44,0L71,153.72a5.08,5.08,0,0,1,0-7.43l22.15-22.14L71,102a5.09,5.09,0,0,1,0-7.44L94.56,71A5.08,5.08,0,0,1,102,71L124.14,93.1,146.29,71a5.08,5.08,0,0,1,7.44,0l23.6,23.6a5.08,5.08,0,0,1,0,7.44l-22.14,22.15,22.14,22.14a5.08,5.08,0,0,1,0,7.43Z" style="fill:#ed1c24"/></svg>