<svg id="Capa_1" data-name="Capa 1" xmlns="http://www.w3.org/2000/svg" viewBox="0 0 248.29 248.29"><title>aprobado-01</title><path d="M231.63,61.83a121.49,121.49,0,0,1,16.65,62.31,121.46,121.46,0,0,1-16.65,62.31,123.61,123.61,0,0,1-45.18,45.18,121.46,121.46,0,0,1-62.31,16.65,121.44,121.44,0,0,1-62.31-16.65,123.56,123.56,0,0,1-45.18-45.18A121.42,121.42,0,0,1,0,124.14,121.45,121.45,0,0,1,16.65,61.83,123.61,123.61,0,0,1,61.83,16.65,121.44,121.44,0,0,1,124.14,0a121.46,121.46,0,0,1,62.31,16.65A123.65,123.65,0,0,1,231.63,61.83ZM200.28,168.27a86,86,0,0,0,11.8-44.13A86,86,0,0,0,200.28,80a87.64,87.64,0,0,0-32-32,86,86,0,0,0-44.13-11.8A86,86,0,0,0,80,48,87.61,87.61,0,0,0,48,80a86,86,0,0,0-11.8,44.13A86,86,0,0,0,48,168.27a87.61,87.61,0,0,0,32,32,85.92,85.92,0,0,0,44.13,11.8,85.93,85.93,0,0,0,44.13-11.8A87.64,87.64,0,0,0,200.28,168.27Zm-11-57.55-68.21,68.21a10.15,10.15,0,0,1-14.55,0L59,131.41a10.15,10.15,0,0,1,0-14.55l16.49-16.49a10.15,10.15,0,0,1,14.55,0l23.76,23.76,44.45-44.45a10.15,10.15,0,0,1,14.55,0l16.49,16.49a10.15,10.15,0,0,1,0,14.55Z" style="fill:#39b54a"/></svg>