<?xml version="1.0" encoding="utf-8"?>
<!-- Generator: Adobe Illustrator 16.0.0, SVG Export Plug-In . SVG Version: 6.00 Build 0)  -->
<!DOCTYPE svg PUBLIC "-//W3C//DTD SVG 1.1//EN" "http://www.w3.org/Graphics/SVG/1.1/DTD/svg11.dtd">
<svg version="1.1" id="Layer_1" xmlns="http://www.w3.org/2000/svg" xmlns:xlink="http://www.w3.org/1999/xlink" x="0px" y="0px"
	 width="593.969px" height="214.5px" viewBox="0 0 593.969 214.5" enable-background="new 0 0 593.969 214.5" xml:space="preserve">
<g id="Layer_3" display="none">
</g>
<g id="Layer_5">
	<g>
		
			<linearGradient id="SVGID_1_" gradientUnits="userSpaceOnUse" x1="27.6606" y1="-431.9927" x2="251.606" y2="-431.9927" gradientTransform="matrix(1 0 0 -1 0 -361)">
			<stop  offset="0" style="stop-color:#90278E"/>
			<stop  offset="0.7194" style="stop-color:#2B388F"/>
		</linearGradient>
		<path fill="url(#SVGID_1_)" d="M57.022,62.045l-10.663-6.364l17.201,6.935L41.351,74.34l15.462-10.815
			C57.866,62.785,57.026,62.049,57.022,62.045z M53.48,84.096c0.003,0.002,0.008,0.005,0.011,0.008
			c0.01,0.005,0.024,0.014,0.043,0.025c0.275,0.171,1.406,0.975-0.778,2.002L42.572,90.91c0.47-0.148,17.613-5.573,17.613-5.573
			l-19.67-9.163L53.48,84.096z M35.96,75.719l-8.299,6.032l11.403-6.032l-10.335-4.705L35.96,75.719z M83.479,48.873
			c-0.011,0.008-0.02,0.014-0.031,0.022L64.064,62.348l29.384-15.661l-26.61-8.594l17.072,7.991
			C83.924,46.093,85.784,47.273,83.479,48.873z M83.299,75.853l-20.507,8.658L94.58,74.449L64.897,63.127l19.378,10.009
			C84.326,73.168,86.466,74.516,83.299,75.853z M115.254,33.016L115.254,33.016L94.58,46.083l27.479-14.646
			C119.367,30.965,115.254,33.016,115.254,33.016z M121.688,63.166L96.977,73.692l40.708-12.881c0,0-41.952-13.394-41.93-13.386
			l24.901,10.965C121.96,59.158,124.851,61.248,121.688,63.166z M78.406,96.266c0,0,1.753,1.245-1.423,2.285l-14.191,4.603
			l25.228-5.146L61.672,86.015L78.406,96.266z M162.286,72.077L162.286,72.077c-0.001,0,9.581,4.426,0.984,7.297
			c-0.006,0.001-0.011,0.003-0.018,0.005l-27.05,9.028l54.136-10.787l-50.179-15.922L162.286,72.077z M116.236,86.015
			c0,0,3.338,2.719-1.591,4.212h-0.001l-23.864,7.23l41.917-8.464L95.756,74.897L116.236,86.015z M171.827,47.997l-32.232,12.209
			c0.42-0.133,42.862-13.063,42.65-13.118C178.005,45.899,172.972,47.578,171.827,47.997z M233.109,66.268L233.109,66.268
			l-40.792,10.958c0.471-0.094,60.177-11.576,59.279-11.819C244.974,63.489,233.109,66.268,233.109,66.268z M225.273,89.626
			c0,0,6.905,2.459,13.252,1.772l-46.208-13.146L225.273,89.626L225.273,89.626z M168.247,102.556l-33.892-12.93l22.369,10.465
			C156.833,100.137,162.951,102.705,168.247,102.556z M115.722,110.619L89.229,98.557l19.009,10.083
			C108.412,108.721,111.749,110.225,115.722,110.619z"/>
	</g>
	<g>
		<g>
			<path fill="#231F20" d="M148.297,171.037h-6.258l-25.337-34.694c0.121,1.397,0.182,4.071,0.182,6.927v27.771h-5.529v-43.142
				h6.319l25.216,34.392c-0.122-1.396-0.122-3.401-0.122-6.017v-28.375h5.529V171.037z"/>
		</g>
		<path fill="#231F20" d="M180.25,169.275c-3.038,1.578-6.319,2.309-9.904,2.369c-10.572,0.121-16.223-6.563-16.223-16.283
			c0-9.357,5.712-15.494,14.278-15.494c7.656,0,12.699,5.65,11.666,15.919h-20.476c-0.062,7.291,4.496,11.302,11.423,11.302
			c2.612,0,5.711-0.426,9.418-2.066L180.25,169.275z M167.612,143.877c-3.889,0-7.535,2.795-7.899,8.081l15.068-0.062
			C174.843,146.915,171.926,143.877,167.612,143.877z"/>
		<path fill="#231F20" d="M197.383,171.705c-1.823,0-3.707-0.182-5.226-0.668v15.189h-5.529v-45.512l5.104-0.484l0.122,4.133
			c2.552-3.221,6.015-4.438,9.479-4.438c7.048,0,12.76,5.165,12.76,15.068C214.092,165.145,208.076,171.705,197.383,171.705z
			 M200.056,144.605c-2.612,0-5.286,0.852-7.898,3.707v17.86c1.944,0.79,4.132,1.097,5.954,1.097
			c6.259,0,10.269-4.013,10.269-11.483C208.38,148.009,204.248,144.605,200.056,144.605z"/>
		<path fill="#231F20" d="M245.625,171.22c-1.276,0.243-2.37,0.364-3.585,0.364c-2.674,0-4.739-1.094-5.529-3.585
			c-2.734,2.612-5.894,3.706-9.357,3.706c-5.347,0-9.296-3.159-9.296-8.081c0-4.617,3.28-10.024,17.863-10.207v-1.033
			c0-1.823-0.061-3.646-0.607-4.86c-0.912-1.942-2.734-3.039-5.894-3.039c-2.613,0-5.712,0.608-9.297,2.492l-0.364-4.19
			c2.977-2.006,7.108-2.854,10.208-2.854c5.347,0,8.323,1.764,9.903,4.438c1.276,2.127,1.458,4.679,1.458,8.08v9.966
			c0,3.646-0.182,5.528,4.739,5.347L245.625,171.22z M235.721,157.366c-9.843-0.183-12.577,2.916-12.577,5.711
			c0,2.431,1.883,4.375,5.407,4.375c2.613,0,4.982-0.911,7.17-2.795V157.366L235.721,157.366z"/>
		<path fill="#231F20" d="M249.694,171.037v-46.48l5.529-0.548v47.028H249.694z"/>
		<path fill="#231F20" d="M310.172,163.441c-4.01,4.68-9.782,7.717-19.625,7.717c-4.192,0-8.75,0-14.036-0.121v-43.141
			c4.375-0.063,7.534-0.063,11.605-0.063c8.871,0,16.953,1.521,22.179,7.229c3.463,3.77,5.286,8.266,5.286,13.672
			C315.581,153.902,313.94,159.128,310.172,163.441z M305.555,138.53c-3.827-4.192-9.114-5.712-17.622-5.712
			c-1.944,0-3.584,0-5.59,0.062v33.175c3.281,0.121,5.529,0.121,8.385,0.121c7.717,0,12.214-2.369,15.313-6.318
			c2.369-3.037,3.463-6.926,3.463-10.512C309.504,145.518,308.471,141.689,305.555,138.53z"/>
		<path fill="#231F20" d="M346.131,171.22c-1.275,0.243-2.37,0.364-3.585,0.364c-2.674,0-4.739-1.094-5.529-3.585
			c-2.733,2.612-5.894,3.706-9.356,3.706c-5.348,0-9.297-3.159-9.297-8.081c0-4.617,3.281-10.024,17.863-10.207v-1.033
			c0-1.823-0.061-3.646-0.606-4.86c-0.912-1.942-2.734-3.039-5.894-3.039c-2.613,0-5.713,0.608-9.298,2.492l-0.364-4.19
			c2.978-2.006,7.108-2.854,10.207-2.854c5.348,0,8.324,1.764,9.904,4.438c1.275,2.127,1.458,4.679,1.458,8.08v9.966
			c0,3.646-0.183,5.528,4.739,5.347L346.131,171.22z M336.227,157.366c-9.844-0.183-12.576,2.916-12.576,5.711
			c0,2.431,1.883,4.375,5.406,4.375c2.613,0,4.982-0.911,7.17-2.795V157.366L336.227,157.366z"/>
		<path fill="#231F20" d="M366.606,170.247c-2.127,0.973-4.436,1.337-6.076,1.337c-5.347,0-9.722-2.188-9.722-9.904v-16.102h-4.679
			v-3.827l4.922-0.547l0.852-6.198l4.436-0.061v6.259h9.296l-0.241,4.374h-9.055v15.555c0,4.739,2.611,5.833,5.286,5.833
			c1.215,0,2.854-0.182,5.043-1.032L366.606,170.247z"/>
		<path fill="#231F20" d="M396.741,171.22c-1.275,0.243-2.369,0.364-3.584,0.364c-2.674,0-4.739-1.094-5.529-3.585
			c-2.734,2.612-5.895,3.706-9.357,3.706c-5.347,0-9.296-3.159-9.296-8.081c0-4.617,3.28-10.024,17.863-10.207v-1.033
			c0-1.823-0.062-3.646-0.606-4.86c-0.912-1.942-2.734-3.039-5.895-3.039c-2.613,0-5.712,0.608-9.297,2.492l-0.364-4.19
			c2.978-2.006,7.108-2.854,10.208-2.854c5.348,0,8.323,1.764,9.903,4.438c1.276,2.127,1.458,4.679,1.458,8.08v9.966
			c0,3.646-0.182,5.528,4.738,5.347L396.741,171.22z M386.837,157.366c-9.843-0.183-12.577,2.916-12.577,5.711
			c0,2.431,1.883,4.375,5.407,4.375c2.612,0,4.981-0.911,7.17-2.795V157.366L386.837,157.366z"/>
		<path fill="#231F20" d="M411.926,171.037v-43.141h7.777c5.832,0,9.965,0.729,13.55,3.221c3.464,2.369,5.407,6.016,5.407,10.572
			c0,5.348-2.674,9.965-7.412,12.334c-2.734,1.396-6.319,1.942-10.208,1.52v-4.679c3.099,0.183,5.59-0.121,7.595-1.337
			c2.432-1.521,4.012-4.192,4.012-7.412c0-3.342-1.459-5.65-3.646-7.109c-2.248-1.52-5.165-2.064-9.055-2.064h-2.188v38.099
			L411.926,171.037L411.926,171.037z"/>
		<path fill="#231F20" d="M455.976,171.645c-8.143,0-14.644-5.953-14.644-16.041c0-9.9,6.501-15.733,15.251-15.733
			c8.444,0,14.339,5.711,14.339,15.188C470.922,165.813,464.118,171.645,455.976,171.645z M456.097,144.363
			c-5.347,0-9.175,3.828-9.175,10.937c0,6.623,3.585,11.849,9.054,11.849h0.485c5.165,0,8.811-4.557,8.811-11.604
			C465.272,149.042,461.93,144.363,456.097,144.363z"/>
		<path fill="#231F20" d="M492.735,145.396c-1.338-0.365-2.492-0.486-3.646-0.486c-2.369,0-4.921,0.91-6.865,4.01v22.117h-5.529
			v-30.319l5.104-0.485l0.062,4.438c2.188-4.132,5.043-4.736,7.717-4.736c0.91,0,2.431,0.118,3.584,0.547L492.735,145.396z"/>
		<path fill="#231F20" d="M513.999,170.247c-2.127,0.973-4.436,1.337-6.076,1.337c-5.348,0-9.723-2.188-9.723-9.904v-16.102h-4.678
			v-3.827l4.922-0.547l0.851-6.198l4.437-0.061v6.259h9.295l-0.242,4.374h-9.053v15.555c0,4.739,2.611,5.833,5.285,5.833
			c1.215,0,2.855-0.182,5.043-1.032L513.999,170.247z"/>
		<path fill="#231F20" d="M544.134,171.22c-1.276,0.243-2.37,0.364-3.585,0.364c-2.674,0-4.738-1.094-5.529-3.585
			c-2.734,2.612-5.894,3.706-9.357,3.706c-5.346,0-9.295-3.159-9.295-8.081c0-4.617,3.279-10.024,17.863-10.207v-1.033
			c0-1.823-0.062-3.646-0.607-4.86c-0.912-1.942-2.734-3.039-5.895-3.039c-2.613,0-5.712,0.608-9.297,2.492l-0.363-4.19
			c2.977-2.006,7.107-2.854,10.207-2.854c5.348,0,8.323,1.764,9.903,4.438c1.276,2.127,1.458,4.679,1.458,8.08v9.966
			c0,3.646-0.182,5.528,4.739,5.347L544.134,171.22z M534.231,157.366c-9.844-0.183-12.578,2.916-12.578,5.711
			c0,2.431,1.883,4.375,5.408,4.375c2.612,0,4.981-0.911,7.17-2.795V157.366z"/>
		<path fill="#231F20" d="M548.204,171.037v-46.48l5.529-0.548v47.028H548.204z"/>
	</g>
</g>
</svg>
