<?xml version="1.0" encoding="utf-8"?>
<!-- Generator: Adobe Illustrator 21.1.0, SVG Export Plug-In . SVG Version: 6.00 Build 0)  -->
<svg version="1.1" id="Capa_1" xmlns="http://www.w3.org/2000/svg" xmlns:xlink="http://www.w3.org/1999/xlink" x="0px" y="0px"
	 viewBox="0 0 281.9 281.9" style="enable-background:new 0 0 281.9 281.9;" xml:space="preserve">
<style type="text/css">
	.st0{fill:#28B2F4;}
</style>
<path class="st0" d="M280.1,119.2C268.2,42.4,196-10.3,119.2,1.7c-76.8,12-129.5,84.2-117.5,161c5.8,37.2,25.7,69.9,56.1,92.1
	c24.4,17.8,53.2,27.1,82.8,27.1c7.3,0,14.7-0.6,22-1.7c37.2-5.8,69.9-25.7,92.1-56.1C276.9,193.6,286,156.4,280.1,119.2z
	 M251.6,221.8c-21.6,29.6-53.4,49-89.6,54.6c-36.2,5.6-72.4-3.1-102-24.7c-29.6-21.6-49-53.4-54.6-89.6
	C-6.2,87.4,45.1,17.1,119.8,5.5c7.1-1.1,14.2-1.7,21.2-1.7c66.3,0,124.8,48.4,135.4,116C282,156,273.2,192.2,251.6,221.8z"/>

<g>
	<g>
		<path class="st0" d="M228.9,215.6h-176c-2.7,0-5.5,0-8.2-1.6c-2.5-1.4-4.5-2.7-6-5.3c-3.2-5.4-3.3-10.9-0.3-16.3l88-161.3
			c1.5-2.7,3.5-4.8,6.1-6.3c2.6-1.5,5.4-2.3,8.4-2.3c3,0,5.8,0.8,8.4,2.3c2.6,1.5,4.6,3.7,6.1,6.3l88,161.3c3,5.4,2.9,10.6-0.3,16
			c-1.7,2.9-4.1,4.5-6,5.6C234.4,215.6,231.6,215.6,228.9,215.6z M140.9,26.2c-2.3,0-4.5,0.6-6.5,1.8c-2,1.2-3.6,2.8-4.7,4.9
			l-88,161.3c-2.3,4.2-2.3,8.3,0.2,12.6c1,1.8,2.5,2.7,4.6,3.9c1.8,1,3.9,1,6.3,1h176c2.4,0,4.5,0,6.3-1c2.3-1.3,3.6-2.6,4.6-4.3
			c2.5-4.2,2.5-8,0.2-12.2c0,0,0,0,0,0l-88-161.3c-1.1-2.1-2.7-3.7-4.7-4.9C145.4,26.8,143.3,26.2,140.9,26.2z M140.9,182.8
			c-8.3,0-15-6.7-15-15c0-8.3,6.7-15,15-15c8.3,0,15,6.7,15,15C156,176,149.2,182.8,140.9,182.8z M140.9,156.5
			c-6.2,0-11.2,5-11.2,11.2c0,6.2,5,11.2,11.2,11.2c6.2,0,11.2-5,11.2-11.2C152.1,161.6,147.1,156.5,140.9,156.5z M140.9,143.9
			c-7,0-12.7-6-12.8-13.4l-2.7-36.1c0-0.3-0.5-7.3,4-12.1c2.7-2.9,6.6-4.4,11.5-4.4c5.1,0,9.1,1.5,11.8,4.5c4.3,4.7,3.7,11.4,3.7,12
			l-2.7,36.1C153.7,137.9,147.9,143.9,140.9,143.9z M140.9,81.7c-3.8,0-6.7,1.1-8.7,3.2c-3.3,3.6-3,9.2-3,9.2l2.7,36.1
			c0,0,0,0.1,0,0.1c0,5.3,4,9.7,9,9.7c4.9,0,9-4.3,9-9.7c0,0,0-0.1,0-0.1l2.7-36.1c0,0,0,0,0-0.1l0,0c0-0.1,0.5-5.5-2.7-9.1
			C147.9,82.8,144.9,81.7,140.9,81.7z"/>
	</g>
</g>
</svg>
