<svg id="Capa_1" data-name="Capa 1"
	xmlns="http://www.w3.org/2000/svg" viewBox="0 0 40.54 41.35">
	<title>00_Portal de Datos_iconos-Agroganadería-pesca-forestación</title>
	<style type="text/css">
		.svg-agrogranaderia{fill:#767676;}
	</style>
	<path class="svg-agrogranaderia" d="M39,5.9h-4.6V2.4a2.4,2.4,0,0,0-4.8,0V3.8a2,2,0,0,1-2,2H17.45a2,2,0,0,1-2-2V2.4a2.4,2.4,0,0,0-4.8,0V5.8H6.15a2.21,2.21,0,0,0-1.6,2.4c0,2.2,1.6,2.4,1.6,2.4h3a1,1,0,0,1,.9.7c0.2,0.8.5,2.2,0.8,3.9,0.3-.2.5-0.3,0.8-0.5a2.28,2.28,0,0,1,3.06,1h0a7.74,7.74,0,0,1,.7,4.48,1.7,1.7,0,0,1,.7.1,2,2,0,0,1,1.3,1.2,8.25,8.25,0,0,1,.8,4.3,2.3,2.3,0,0,1,2,1.3,7.82,7.82,0,0,1,.4,6l-0.1.2h7.3a3.37,3.37,0,0,0,3.1-2.8c0.6-2.5,3.4-15.9,4.1-19.2a1,1,0,0,1,.9-0.7h3s1.6-.2,1.6-2.4S39,5.9,39,5.9ZM17.75,16.1a1.6,1.6,0,1,1,1.6-1.6A1.72,1.72,0,0,1,17.75,16.1Zm9.64,0h0A1.6,1.6,0,1,1,29,14.5,1.58,1.58,0,0,1,27.39,16.1Z" transform="translate(0.03 0)" />
	<path class="svg-agrogranaderia" d="M7.85,21.3a6.37,6.37,0,0,0-.3-4.7A5.94,5.94,0,0,0,4,13.5a0.51,0.51,0,0,0-.7.4,6.37,6.37,0,0,0,.3,4.7,5.67,5.67,0,0,0,3.5,3.1A0.62,0.62,0,0,0,7.85,21.3Z" transform="translate(0.03 0)" />
	<path class="svg-agrogranaderia" d="M12.35,16.3a5.67,5.67,0,0,0-3.1,3.5,6.37,6.37,0,0,0,.3,4.7,0.63,0.63,0,0,0,.8.3,5.67,5.67,0,0,0,3.1-3.5,6.37,6.37,0,0,0-.3-4.7A0.67,0.67,0,0,0,12.35,16.3Z" transform="translate(0.03 0)" />
	<path class="svg-agrogranaderia" d="M8.55,25.4V25a6.17,6.17,0,0,0-8.2-2.8A0.63,0.63,0,0,0,0,23a6.17,6.17,0,0,0,8.2,2.8A0.54,0.54,0,0,0,8.55,25.4Z" transform="translate(0.03 0)" />
	<path class="svg-agrogranaderia" d="M12,25.5a6.37,6.37,0,0,0,.3,4.7,0.63,0.63,0,0,0,.8.3,5.67,5.67,0,0,0,3.1-3.5,6.37,6.37,0,0,0-.3-4.7,0.63,0.63,0,0,0-.8-0.3A5.67,5.67,0,0,0,12,25.5Z" transform="translate(0.03 0)" />
	<path class="svg-agrogranaderia" d="M11.35,31.1V30.7a6.17,6.17,0,0,0-8.2-2.8,0.63,0.63,0,0,0-.3.8A6.17,6.17,0,0,0,11,31.5,1.38,1.38,0,0,1,11.35,31.1Z" transform="translate(0.03 0)" />
	<path class="svg-agrogranaderia" d="M14.75,31.1a6.37,6.37,0,0,0,.3,4.7,0.63,0.63,0,0,0,.8.3A5.67,5.67,0,0,0,19,32.6a6.37,6.37,0,0,0-.3-4.7,0.63,0.63,0,0,0-.8-0.3A6.28,6.28,0,0,0,14.75,31.1Z" transform="translate(0.03 0)" />
	<path class="svg-agrogranaderia" d="M5.85,33.5a0.52,0.52,0,0,0-.31.66h0A5.67,5.67,0,0,0,9,37.3a6.37,6.37,0,0,0,4.7-.3,0.85,0.85,0,0,0,.3-0.3,0.55,0.55,0,0,0,0-.4A6.17,6.17,0,0,0,5.85,33.5Z" transform="translate(0.03 0)" />
	<path class="svg-agrogranaderia" d="M14.95,38.1l1.4,2.9a0.63,0.63,0,0,0,.8.3,0.85,0.85,0,0,0,.3-0.3,0.55,0.55,0,0,0,0-.4l-1.4-3a0.63,0.63,0,0,0-.8-0.3,0.58,0.58,0,0,0-.32.75h0Z" transform="translate(0.03 0)" />
</svg>
