<svg id="Capa_1" data-name="Capa 1"
	xmlns="http://www.w3.org/2000/svg" viewBox="0 0 22.18 36.29">
	<title>00_Portal de Datos_energia</title>
	<style type="text/css">
		.svg-energia{fill:#767676;}
	</style>
	<path class="svg-energia" d="M12.7,20.6l18.8-6.8a1.64,1.64,0,1,0-1.1-3.1L11.6,17.5A1.64,1.64,0,1,0,12.7,20.6Z" transform="translate(-10.41 -3.31)" />
	<path class="svg-energia" d="M12.6,15L31.4,8.2a1.64,1.64,0,0,0-1.1-3.1L11.5,12a1.68,1.68,0,0,0-1,2.1A1.71,1.71,0,0,0,12.6,15Z" transform="translate(-10.41 -3.31)" />
	<path class="svg-energia" d="M12.6,9.4l7.9-2.9a1.68,1.68,0,0,0,1-2.1,1.68,1.68,0,0,0-2.1-1L11.5,6.3a1.68,1.68,0,0,0-1,2.1A1.76,1.76,0,0,0,12.6,9.4Z" transform="translate(-10.41 -3.31)" />
	<path class="svg-energia" d="M30.4,21.3L26,23l-3.2,1.2v3.6H20.4V24.7a2.1,2.1,0,0,0-.4-1.1l8.42-3,3-1.06,0.14-.07,0.06,0,0.08,0h0a1.5,1.5,0,0,0,.63-0.68h0a1.85,1.85,0,0,0,.1-0.27l0-.05a1.72,1.72,0,0,0,0-1,1.68,1.68,0,0,0-2.1-1L14.5,22l-2.84,1-0.13.06,0,0h0a1.63,1.63,0,0,0,.86,3.09H17.1v1.5H14.9c-1.1,0-1,.4-1,0.8a3.76,3.76,0,0,0,1.3,3c1.5,1.5.3,2.1,2.5,2.1h7.4c2.2,0,1.1-.6,2.5-2.1a3.43,3.43,0,0,0,1.3-3c0-.5,0-0.8-1-0.8H26V26.4l5.5-2A1.64,1.64,0,0,0,30.4,21.3Z" transform="translate(-10.41 -3.31)" />
	<path class="svg-energia" d="M16.6,38a1.58,1.58,0,0,0,1.6,1.6h6.4A1.58,1.58,0,0,0,26.2,38V35.7H16.6V38Z" transform="translate(-10.41 -3.31)" />
</svg>
