<svg id="Capa_1" data-name="Capa 1"
	xmlns="http://www.w3.org/2000/svg" viewBox="0 0 32 32">
	<title>00_Portal de Datos_medio-ambiente</title>
	<style type="text/css">
		.svg-medio-ambiente{fill:#767676;}
	</style>
	<path class="svg-medio-ambiente" d="M21.6,12.2A18.82,18.82,0,0,0,16.1,0a19.82,19.82,0,0,0-5.7,12.2A24.87,24.87,0,0,1,16,16.4,21.09,21.09,0,0,1,21.6,12.2ZM11.2,16.4c-0.2-.2-0.5-0.3-0.7-0.5A1.53,1.53,0,0,0,11.2,16.4ZM21.5,16c-0.2.1-.4,0.3-0.6,0.4A5.92,5.92,0,0,1,21.5,16ZM16,21.5A19.14,19.14,0,0,0,0,12.8,19.6,19.6,0,0,0,12.8,31.2,16.65,16.65,0,0,0,16,32c1.1-.2,2.1-0.5,3.2-0.8A19.46,19.46,0,0,0,32,12.8,19.14,19.14,0,0,0,16,21.5Z" transform="translate(0)" />
</svg>
