<svg id="Capa_1" data-name="Capa 1"
	xmlns="http://www.w3.org/2000/svg" viewBox="0 0 35 32.6">
	<title>00_Portal de Datos_economia-finanzas</title>
  <style type="text/css">
  	.economia-finanzas{fill:#767676;}
  </style>
	<path class="economia-finanzas" d="M10.5,0C4.8,0,0,1.2,0,2.7V4.5C0,6,4.8,7.2,10.5,7.2S21,6,21,4.5V2.7C21,1.2,16.2,0,10.5,0Z" transform="translate(0)"/>
	<path class="economia-finanzas" d="M13.8,26.5a2.09,2.09,0,0,1-.8-1.6V23c-1.2.1-2.1,0.1-2.4,0.1-0.9,0-7.1-.1-10-1.8a1,1,0,0,0-.6,1v1.8c0,1.5,4.8,2.7,10.5,2.7,1.1,0,2.1,0,3.1-.1Z" transform="translate(0)" />
	<path class="economia-finanzas" d="M34.3,27.1a5.23,5.23,0,0,1-1.5.7h0a33.1,33.1,0,0,1-8.4,1.1,31.73,31.73,0,0,1-8.4-1,1.79,1.79,0,0,1-1.1.5,1.37,1.37,0,0,0,1.1-.5,11.64,11.64,0,0,1-1.5-.6,1,1,0,0,0-.5.8v1.8c0,1.5,4.8,2.7,10.5,2.7S35,31.4,35,29.9V28.1A1.26,1.26,0,0,0,34.3,27.1Z" transform="translate(0)" />
	<path class="economia-finanzas" d="M13,20V18.1c-1.2.1-2.1,0.1-2.4,0.1-0.9,0-7.1-.1-10-1.8a1.56,1.56,0,0,0-.6,1v1.8c0,1.5,4.8,2.7,10.5,2.7,1.2,0,2.4-.1,3.4-0.2A2.23,2.23,0,0,1,13,20Z" transform="translate(0)" />
	<path class="economia-finanzas" d="M14.7,22.3a1.4,1.4,0,0,0-.7.9V25c0,1.5,4.8,2.7,10.5,2.7S35,26.5,35,25V23.2a1.14,1.14,0,0,0-.7-1c-2.9,1.7-9,1.7-9.9,1.7S17.7,23.8,14.7,22.3Z" transform="translate(0)" />
	<path class="economia-finanzas" d="M34.3,17.2c-2.9,1.7-9,1.7-9.9,1.7a28.78,28.78,0,0,1-3.4-.2,22.77,22.77,0,0,1-5.1-.9,6.12,6.12,0,0,1-1.2-.5,2.31,2.31,0,0,0-.7.7v2c0,0.6.7,1.1,1.9,1.5,0.1,0,.2.1,0.3,0.1a29.72,29.72,0,0,0,8.3,1A26.93,26.93,0,0,0,33,21.5c1.3-.4,2-1,2-1.6V18.1A1.13,1.13,0,0,0,34.3,17.2Z" transform="translate(0)" />
	<path class="economia-finanzas" d="M13,15V13.2h0c-1.2.1-2.1,0.1-2.4,0.1-0.9,0-7.1-.1-10-1.8a1,1,0,0,0-.6,1v1.8C0,15.8,4.8,17,10.5,17c1.2,0,2.4-.1,3.5-0.2A2.39,2.39,0,0,1,13,15Z" transform="translate(0)" />
	<path class="economia-finanzas" d="M21,9.5V7.6a1.08,1.08,0,0,0-.7-0.8c-3,1.6-8.8,1.6-9.7,1.6S3.5,8.3.6,6.6a1,1,0,0,0-.6,1V9.4c0,1.5,4.8,2.7,10.5,2.7,1,0,2,0,3-.1C14.7,10.4,18.2,9.8,21,9.5Z" transform="translate(0)" />
	<path class="economia-finanzas" d="M24.5,10.6c-5.7,0-10.5,1.2-10.5,2.6V15c0,1.5,4.8,2.7,10.5,2.7S35,16.5,35,15V13.2C35,11.8,30.2,10.6,24.5,10.6Z" transform="translate(0)" />
</svg>
