<svg id="Capa_1" data-name="Capa 1"
	xmlns="http://www.w3.org/2000/svg" viewBox="0 0 36 36">
	<title>00_Portal de Datos_asuntos-internacionales</title>
  <style type="text/css">
    .svg-asuntos-internacionales{fill:#767676;}
  </style>
	<path class="svg-asuntos-internacionales" d="M18,0A18,18,0,1,0,36,18,18,18,0,0,0,18,0ZM33.8,18a15.89,15.89,0,0,1-.12,1.9H26.35q0-.94,0-1.9c0-.82,0-1.61-0.08-2.4h7.27A15.86,15.86,0,0,1,33.8,18ZM2.2,18a15.84,15.84,0,0,1,.2-2.4H9.68c0,0.79-.08,1.58-0.08,2.4q0,1,0,1.9H2.33A15.89,15.89,0,0,1,2.2,18Zm22.1,0c0,0.65,0,1.28-.05,1.9H11.75c0-.62-0.05-1.25-0.05-1.9,0-.83,0-1.62.08-2.4H24.22C24.27,16.38,24.3,17.17,24.3,18ZM24,22.5a29.2,29.2,0,0,1-.85,4.3H12.83A29.2,29.2,0,0,1,12,22.5H24ZM12,13A28,28,0,0,1,13,8.7H23A28,28,0,0,1,24,13H12ZM25.22,8.7h5.52A15.76,15.76,0,0,1,33,13H26.08A31.29,31.29,0,0,0,25.22,8.7ZM24.38,6.2a15.65,15.65,0,0,0-1.76-3.3,15.78,15.78,0,0,1,5.84,3.3H24.38Zm-2.3,0H13.92c1.17-2.53,2.66-4,4.08-4S20.91,3.67,22.08,6.2Zm-10.46,0H7.52a15.75,15.75,0,0,1,5.87-3.31A15.63,15.63,0,0,0,11.62,6.2ZM10.78,8.7A31.29,31.29,0,0,0,9.92,13H3A15.73,15.73,0,0,1,5.25,8.7h5.54ZM9.87,22.5a32.45,32.45,0,0,0,.78,4.3H4.88a15.73,15.73,0,0,1-2-4.3h7Zm1.59,6.9a16.06,16.06,0,0,0,1.93,3.71A15.77,15.77,0,0,1,7.08,29.4h4.38Zm2.27,0h8.54c-1.2,2.78-2.77,4.4-4.27,4.4S14.93,32.18,13.73,29.4Zm10.81,0h4.38a15.77,15.77,0,0,1-6.31,3.71A16.06,16.06,0,0,0,24.54,29.4Zm0.81-2.6a32.45,32.45,0,0,0,.78-4.3h7a15.73,15.73,0,0,1-2,4.3H25.36Z"/>
</svg>
