<svg id="Capa_1" data-name="Capa 1"
	xmlns="http://www.w3.org/2000/svg" viewBox="0 0 38 31.71">
	<title>00_Portal de Datos_regiones-ciudades</title>
	<style type="text/css">
		.svg-regiones-ciudades{fill:#767676;}
	</style>
	<path class="svg-regiones-ciudades" d="M36.9,0l-0.3.1L25.3,3.71,12.7,0,0.8,3.41a0.86,0.86,0,0,0-.8.8v26.6a1,1,0,0,0,1.09.9h0l0.3-.1L12.7,28l12.7,3.7,11.8-3.3a1,1,0,0,0,.8-0.8V0.91A1,1,0,0,0,36.91,0h0ZM25.3,28.21l-12.7-3.7v-21l12.7,3.7v21Z" transform="translate(0 -0.01)" />
</svg>
