<svg id="Capa_1" data-name="Capa 1"
	xmlns="http://www.w3.org/2000/svg" viewBox="0 0 40 35.77">
	<title>00_Portal de Datos_Ciencia-tecnología</title>
	<style type="text/css">
		.svg-ciencia-tecnologia{fill:#767676;}
	</style>
	<path class="svg-ciencia-tecnologia" d="M40,17.87c0-3.18-3.45-5.49-8.22-6.87,0.16-.64.3-1.28,0.42-1.93,0.7-4.3-.1-7.3-2.2-8.5s-5.1-.4-8.5,2.3c-0.51.44-1,.89-1.5,1.36C16.41,0.82,12.71-1,10,.57S7,6.22,8.17,11C3.42,12.4,0,14.7,0,17.87s3.42,5.47,8.17,6.86C7,29.52,7.3,33.62,10,35.17a4.28,4.28,0,0,0,2.2.6c2.38,0,5.14-1.67,7.82-4.24,0.48,0.46,1,.91,1.48,1.34,2.3,1.9,4.5,2.9,6.3,2.9a4,4,0,0,0,2.2-.6c2.76-1.55,3.07-5.66,1.9-10.46C36.61,23.32,40,21,40,17.87ZM27.8,2.27a1.49,1.49,0,0,1,1,.33c1.2,0.7,1.6,3,1.1,6.2q-0.17.82-.37,1.64a42.65,42.65,0,0,0-4.82-.74,42.66,42.66,0,0,0-3.12-3.85q0.64-.6,1.31-1.17C24.8,3.07,26.6,2.27,27.8,2.27ZM28,20.67c0.34,0.84.64,1.66,0.9,2.45-0.82.17-1.69,0.32-2.6,0.45,0.31-.5.61-1,0.9-1.5S27.75,21.14,28,20.67ZM25.2,21c-0.58,1-1.18,2-1.79,2.88C22.32,24,21.18,24,20,24s-2.39,0-3.52-.13Q15.53,22.47,14.7,21c-0.6-1-1.13-2.08-1.62-3.08,0.49-1,1-2,1.62-3s1.14-2,1.78-3c1.13-.08,2.3-0.13,3.52-0.13s2.28,0,3.36.12c0.62,0.94,1.24,1.94,1.84,3S26.33,17,26.82,18Q26.08,19.52,25.2,21Zm-7,5.24q0.89,0,1.78,0t1.71,0c-0.57.74-1.15,1.44-1.72,2.07C19.38,27.64,18.79,27,18.22,26.24ZM12.7,22.07q0.42,0.75.86,1.48c-0.91-.13-1.77-0.28-2.59-0.46,0.26-.8.57-1.64,0.92-2.5C12.15,21.09,12.42,21.58,12.7,22.07Zm-0.82-6.9c-0.35-.86-0.65-1.7-0.91-2.5,0.81-.18,1.68-0.33,2.58-0.46q-0.44.72-.85,1.45C12.42,14.17,12.14,14.67,11.88,15.17ZM20,7.47q0.84,0.94,1.68,2L20,9.47q-0.89,0-1.77,0C18.78,8.8,19.37,8.13,20,7.47Zm7.32,6.2q-0.43-.73-0.88-1.45c0.87,0.12,1.7.27,2.49,0.44-0.25.81-.52,1.62-0.83,2.41C27.82,14.59,27.57,14.13,27.3,13.67ZM11.1,2.57a2,2,0,0,1,1.1-.3c1.56,0,3.79,1.25,6.21,3.57A39.31,39.31,0,0,0,15.23,9.7a42.45,42.45,0,0,0-4.88.76C9.36,6.36,9.66,3.39,11.1,2.57ZM2.3,17.87c0-1.67,2.44-3.44,6.49-4.64a42.71,42.71,0,0,0,1.78,4.64,42.68,42.68,0,0,0-1.79,4.66C4.74,21.32,2.3,19.54,2.3,17.87Zm8.8,15.4c-1.44-.87-1.75-3.87-0.75-8a42.46,42.46,0,0,0,4.87.76,39.32,39.32,0,0,0,3.21,3.89C15.34,32.9,12.56,34.14,11.1,33.27Zm17.7,0c-1.2.7-3.4-.1-5.9-2.1-0.46-.41-0.91-0.83-1.35-1.26A41.67,41.67,0,0,0,24.67,26a42.7,42.7,0,0,0,4.86-.74C30.55,29.47,30.25,32.49,28.8,33.3Zm2.48-10.78a41.79,41.79,0,0,0-1.84-4.72,39.28,39.28,0,0,0,1.72-4.57c4.08,1.21,6.54,3,6.54,4.68S35.29,21.32,31.28,22.52Z" transform="translate(0 -0.01)" />
	<circle class="svg-ciencia-tecnologia" cx="20" cy="17.86" r="3.2" />
</svg>
