<svg id="Capa_1" data-name="Capa 1"
	xmlns="http://www.w3.org/2000/svg" viewBox="0 0 39.7 25.3">
	<title>00_Portal de Datos_transporte</title>
	<style type="text/css">
		.svg-transporte{fill:#767676;}
	</style>
	<path class="svg-transporte" d="M18.7,18.6a4.16,4.16,0,0,0,1.3,3V24a1.32,1.32,0,0,0,1.3,1.3h1.3A1.32,1.32,0,0,0,23.9,24V22.7H34.5V24a1.32,1.32,0,0,0,1.3,1.3h1.3A1.32,1.32,0,0,0,38.4,24V21.6a4,4,0,0,0,1.3-3V5.3C39.7,0.6,34.9,0,29.1,0s-10.6.7-10.6,5.3V18.6h0.2Zm4.7,1.3a2,2,0,1,1,2-2,2,2,0,0,1-2,2h0Zm11.9,0a2,2,0,1,1,2-2,2,2,0,0,1-2,2h0Zm2-8h-16V5.2h16v6.7Z" />
	<path class="svg-transporte" d="M15.1,11a1.38,1.38,0,0,0-1.3-1H3.3A1.38,1.38,0,0,0,2,11L0,16.7v7.6a0.9,0.9,0,0,0,.9.9H1.8a0.9,0.9,0,0,0,.9-0.9h0V23.4H14.1v0.9a0.9,0.9,0,0,0,.9.9h0.9a0.9,0.9,0,0,0,.9-0.9h0V16.7ZM3.3,20.5a1.4,1.4,0,0,1,0-2.8h0a1.4,1.4,0,0,1,0,2.8h0Zm10.5,0a1.4,1.4,0,1,1,1.4-1.4h0A1.43,1.43,0,0,1,13.8,20.5ZM2.2,15.8l1.4-3.9h9.7l1.4,3.9H2.2Z" />
</svg>
