<svg class="user-logo" xmlns="http://www.w3.org/2000/svg" viewBox="0 0 128.46 128.46"><path d="M128.46,64.23A63.15,63.15,0,0,0,119.84,32,64.21,64.21,0,0,0,96.48,8.62,63.12,63.12,0,0,0,64.23,0,63.12,63.12,0,0,0,32,8.62,64.2,64.2,0,0,0,8.62,32,63.15,63.15,0,0,0,0,64.23,63.15,63.15,0,0,0,8.62,96.48a64.76,64.76,0,0,0,9.82,12.86l-.16.27a70.09,70.09,0,0,0,9.2,7.34c1.46,1,3,2,4.51,2.91a63.17,63.17,0,0,0,32.25,8.62,63.17,63.17,0,0,0,32.25-8.62,66.19,66.19,0,0,0,7-4.74,72.41,72.41,0,0,0,6.61-5.51l-.14-.23a64.76,64.76,0,0,0,9.85-12.89A63.15,63.15,0,0,0,128.46,64.23Zm-20.52,41.89C101.56,96.56,88,81,66.73,79.8a26.25,26.25,0,0,0,16.88-7.9,26.44,26.44,0,0,0,8-19.41,26.44,26.44,0,0,0-8-19.4,26.42,26.42,0,0,0-19.4-8,26.41,26.41,0,0,0-19.4,8,26.44,26.44,0,0,0-8,19.4,26.44,26.44,0,0,0,8,19.41,26.25,26.25,0,0,0,16.87,7.9C40.48,81,26.88,96.52,20.49,106.09a61.14,61.14,0,0,1-8.66-11.48A59.48,59.48,0,0,1,3.71,64.23a59.48,59.48,0,0,1,8.11-30.37,60.53,60.53,0,0,1,22-22A59.45,59.45,0,0,1,64.23,3.71,59.46,59.46,0,0,1,94.6,11.83a60.54,60.54,0,0,1,22,22,59.48,59.48,0,0,1,8.11,30.37,59.48,59.48,0,0,1-8.11,30.37A61.14,61.14,0,0,1,107.94,106.12Z" style="fill:#0695d6"/></svg>